<svg xmlns="http://www.w3.org/2000/svg" viewBox="0 0 484.28 484.32">
  <defs>
    <style>
      .cls-1 {
        fill: #65b1eb;
      }

      .cls-2 {
        fill: #ddd;
      }
    </style>
  </defs>
  <g id="Livello_2" data-name="Livello 2">
    <g id="Livello_1-2" data-name="Livello 1">
      <g id="Icons">
        <path class="cls-1" d="M270,484.32H214.32A13.82,13.82,0,0,1,200.57,472l-3.07-27.2A205.24,205.24,0,0,1,130.39,417L109,434.12a13.83,13.83,0,0,1-18.41-1L51.24,393.69a13.83,13.83,0,0,1-1-18.41L67.3,353.89a205,205,0,0,1-27.77-67.11l-27.2-3.07A13.84,13.84,0,0,1,0,270V214.32a13.83,13.83,0,0,1,12.29-13.75l27.2-3.07a205,205,0,0,1,27.77-67.11L50.2,109a13.83,13.83,0,0,1,1-18.41L90.6,51.21a13.83,13.83,0,0,1,18.41-1L130.4,67.27A205,205,0,0,1,197.51,39.5l3.06-27.2A13.83,13.83,0,0,1,214.32,0H270a13.84,13.84,0,0,1,13.76,12.29l3.06,27.2a205,205,0,0,1,67.12,27.77L375.32,50.2a13.83,13.83,0,0,1,18.41,1l39.35,39.4a13.83,13.83,0,0,1,1,18.41L417,130.4a205.24,205.24,0,0,1,27.77,67.11l27.2,3.06a13.83,13.83,0,0,1,12.28,13.71V270A13.83,13.83,0,0,1,472,283.76l-27.2,3.06A205.2,205.2,0,0,1,417,353.94l17.05,21.38a13.83,13.83,0,0,1-1,18.41l-39.39,39.35a13.83,13.83,0,0,1-18.41,1L353.89,417a205.24,205.24,0,0,1-67.11,27.77L283.71,472A13.83,13.83,0,0,1,270,484.32ZM130,401.61a6.85,6.85,0,0,1,3.87,1.19,191.7,191.7,0,0,0,71.24,29.48,6.91,6.91,0,0,1,5.53,6l3.66,32.19H270l3.64-32.19a6.91,6.91,0,0,1,5.53-6,191.84,191.84,0,0,0,71.27-29.48,6.91,6.91,0,0,1,8.19.32l25.3,20.18,39.38-39.38-20.18-25.3a6.91,6.91,0,0,1-.32-8.19,191.84,191.84,0,0,0,29.48-71.27,6.9,6.9,0,0,1,6-5.53l32.2-3.63V214.32l-32.19-3.63a6.94,6.94,0,0,1-6-5.54,191.66,191.66,0,0,0-29.48-71.23,6.91,6.91,0,0,1,.32-8.19l20.18-25.3L383.92,61l-25.3,20.2a6.92,6.92,0,0,1-8.19.33A191.7,191.7,0,0,0,279.16,52a6.9,6.9,0,0,1-5.53-6L270,13.84H214.32L210.69,46a6.91,6.91,0,0,1-5.54,6,191.84,191.84,0,0,0-71.23,29.49,6.92,6.92,0,0,1-8.19-.33L100.4,61,61,100.4l20.2,25.3a6.92,6.92,0,0,1,.33,8.19A191.9,191.9,0,0,0,52,205.13a6.9,6.9,0,0,1-6,5.53l-32.18,3.66V270L46,273.64a6.9,6.9,0,0,1,6,5.53,191.63,191.63,0,0,0,29.49,71.27,6.92,6.92,0,0,1-.33,8.19L61,383.92l39.4,39.38,25.3-20.18A6.93,6.93,0,0,1,130,401.61Z"/>
        <path class="cls-2" d="M238,387.32h-.21A145.25,145.25,0,1,1,387.46,242.16a128.18,128.18,0,0,1-1.25,18.57,6.92,6.92,0,1,1-13.7-2h0a112.24,112.24,0,0,0,1.11-16.59A131.46,131.46,0,1,0,238.14,373.48a6.92,6.92,0,0,1-.19,13.84Z"/>
        <path class="cls-2" d="M348.84,337.16a6.92,6.92,0,0,1-5.34-11.31,130.83,130.83,0,0,0,11.64-16.5,6.92,6.92,0,0,1,11.92,7,145.77,145.77,0,0,1-12.87,18.23A6.91,6.91,0,0,1,348.84,337.16Z"/>
        <path class="cls-2" d="M293.3,377.7a6.92,6.92,0,0,1-2.54-13.36,124,124,0,0,0,17.69-8.71,6.92,6.92,0,0,1,7.26,11.78l-.21.12a137.52,137.52,0,0,1-19.67,9.69A6.85,6.85,0,0,1,293.3,377.7Z"/>
        <path class="cls-2" d="M286.71,284.33a6.92,6.92,0,0,1-4.9-11.81l30.36-30.36-30.36-30.35a6.92,6.92,0,1,1,9.62-9.95l.17.17,35.24,35.25a6.92,6.92,0,0,1,0,9.78L291.6,282.29A7,7,0,0,1,286.71,284.33Z"/>
        <path class="cls-2" d="M197.62,284.33a6.89,6.89,0,0,1-4.89-2l-35.25-35.25a6.92,6.92,0,0,1,0-9.78L192.73,202a6.92,6.92,0,1,1,9.79,9.79h0l-30.36,30.34,30.36,30.36a6.92,6.92,0,0,1-4.9,11.81Z"/>
        <path class="cls-2" d="M227.74,318.27a6.5,6.5,0,0,1-1.39-.15A6.9,6.9,0,0,1,221,310h0l28.87-138.38a6.92,6.92,0,1,1,13.64,2.32,4.42,4.42,0,0,1-.1.5L234.54,312.76A6.92,6.92,0,0,1,227.74,318.27Z"/>
      </g>
    </g>
  </g>
</svg>
